Concert footage from 1973 Billion Dollar Babies Tour with comic scenes throughout.



General
Complete name                            : J:Downers┬╡torrent 00 VidzAlice CooperGood To See You Again, Alice CooperGood To See You Again, Alice Cooper [1974].mp4
Format                                   : MPEG-4
Format profile                           : Base Media
Codec ID                                 : isom
File size                                : 1.93 GiB
Duration                                 : 1h 48mn
Overall bit rate                         : 2 554 Kbps
Writing application                      : Lavf52.31.0

Video
ID                                       : 1
Format                                   : AVC
Format/Info                              : Advanced Video Codec
Format profile                           : Baseline@L1.3
Format settings, CABAC                   : No
Format settings, ReFrames                : 1 frame
Codec ID                                 : avc1
Codec ID/Info                            : Advanced Video Coding
Duration                                 : 1h 48mn
Bit rate                                 : 2 403 Kbps
Width                                    : 1 920 pixels
Height                                   : 1 080 pixels
Display aspect ratio                     : 16:9
Frame rate mode                          : Constant
Frame rate                               : 29.970 fps
Color space                              : YUV
Chroma subsampling                       : 4:2:0
Bit depth                                : 8 bits
Scan type                                : Progressive
Bits/(Pixel*Frame)                       : 0.039
Stream size                              : 1.82 GiB (94%)

Audio
ID                                       : 2
Format                                   : AAC
Format/Info                              : Advanced Audio Codec
Format profile                           : LC
Codec ID                                 : 40
Duration                                 : 1h 48mn
Bit rate mode                            : Constant
Bit rate                                 : 144 Kbps
Nominal bit rate                         : 160 Kbps
Channel(s)                               : 2 channels
Channel positions                        : Front: L R
Sampling rate                            : 44.1 KHz
Compression mode                         : Lossy
Stream size                              : 114 MiB (6%)

